Coordinates
version=1
nRows=65
nColumns=12
inDegrees=yes

Units are S.I. units (second, meters, Newtons, ...)
Angles are in degrees

endheader
time	SC_y	SC_z	SC_x	AC_y	AC_z	AC_x	GH_y	GH_z	GH_yy	EL_x	PS_y
       0.0              -57.48          37.53          34.41          47.91         -19.11          5.727          15.05          70.65          103.0          130.7           80.5
   0.01744              -57.48          37.53          34.41          47.91         -19.11          5.727          15.07          70.64          102.9          130.7          80.51
   0.03489              -57.48          37.52          34.42          47.91          -19.1          5.727          15.08          70.62          102.9          130.7          80.52
   0.05233              -57.48          37.52          34.42          47.91          -19.1          5.727           15.1          70.61          102.8          130.7          80.53
   0.06977              -57.48          37.52          34.42           47.9          -19.1          5.727          15.12           70.6          102.8          130.7          80.54
   0.08722              -57.48          37.51          34.43           47.9          -19.1          5.727          15.14          70.58          102.7          130.7          80.55
    0.1047              -57.48          37.51          34.43           47.9          -19.1          5.727          15.16          70.56          102.7          130.7          80.56
    0.1221              -57.48           37.5          34.44           47.9          -19.1          5.727          15.18          70.55          102.6          130.7          80.58
    0.1395              -57.48           37.5          34.44           47.9          -19.1          5.727          15.21          70.53          102.6          130.7          80.59
     0.157              -57.48          37.49          34.45          47.89          -19.1          5.727          15.23          70.51          102.5          130.7          80.61
    0.1744              -57.48          37.48          34.45          47.89          -19.1          5.727          15.26          70.48          102.4          130.6          80.62
    0.1919              -57.47          37.48          34.46          47.89          -19.1          5.727          15.29          70.46          102.3          130.6          80.64
    0.2093              -57.47          37.47          34.47          47.89          -19.1          5.727          15.32          70.44          102.3          130.6          80.66
    0.2268              -57.47          37.46          34.47          47.88         -19.09          5.727          15.36          70.41          102.2          130.6          80.68
    0.2442              -57.47          37.45          34.48          47.88         -19.09          5.727          15.39          70.38          102.1          130.6          80.71
    0.2617              -57.47          37.45          34.49          47.88         -19.09          5.727          15.43          70.35          102.0          130.6          80.73
    0.2791              -57.47          37.44           34.5          47.87         -19.09          5.727          15.48          70.31          101.8          130.5          80.76
    0.2965              -57.47          37.42          34.51          47.87         -19.09          5.727          15.53          70.27          101.7          130.5          80.79
     0.314              -57.47          37.41          34.52          47.86         -19.09          5.727          15.58          70.23          101.6          130.5          80.82
    0.3314              -57.47           37.4          34.53          47.86         -19.08          5.727          15.64          70.19          101.4          130.5          80.86
    0.3489              -57.47          37.39          34.54          47.85         -19.08          5.727           15.7          70.14          101.3          130.4           80.9
    0.3663              -57.46          37.37          34.56          47.84         -19.08          5.727          15.77          70.08          101.1          130.4          80.94
    0.3838              -57.46          37.35          34.57          47.84         -19.08          5.727          15.85          70.02          100.9          130.4          80.99
    0.4012              -57.46          37.33          34.59          47.83         -19.07          5.727          15.93          69.96          100.7          130.3          81.04
    0.4186              -57.46          37.31          34.61          47.82         -19.07          5.727          16.03          69.88          100.4          130.3           81.1
    0.4361              -57.46          37.29          34.63          47.81         -19.07          5.727          16.13           69.8          100.1          130.3          81.16
    0.4535              -57.45          37.26          34.65           47.8         -19.06          5.727          16.25           69.7          99.82          130.2          81.23
     0.471              -57.45          37.23          34.68          47.79         -19.06          5.727          16.38           69.6          99.47          130.1          81.32
    0.4884              -57.45           37.2          34.71          47.77         -19.05          5.727          16.53          69.48          99.08          130.1          81.41
    0.5059              -57.45          37.16          34.75          47.76         -19.05          5.727           16.7          69.35          98.63          130.0          81.51
    0.5233              -57.44          37.12          34.78          47.74         -19.04          5.727           16.9          69.19          98.11          129.9          81.63
    0.5408              -57.44          37.07          34.83          47.72         -19.03          5.727          17.12          69.02          97.53          129.8          81.77
    0.5582              -57.43          37.01          34.88           47.7         -19.02          5.727          17.38          68.81          96.85          129.7          81.93
    0.5756              -57.43          36.94          34.94          47.67         -19.01          5.727          17.68          68.58          96.06          129.6          82.11
    0.5931              -57.42          36.86          35.01          47.64          -19.0          5.727          18.03           68.3          95.14          129.4          82.33
    0.6105              -57.41          36.77           35.1           47.6         -18.99          5.727          18.44          67.97          94.05          129.2          82.58
     0.628               -57.4          36.66           35.2          47.55         -18.97          5.727          18.93          67.59          92.76          129.0          82.89
    0.6454              -57.39          36.53          35.32           47.5         -18.95          5.727          19.52          67.12          91.21          128.7          83.25
    0.6629              -57.37          36.37          35.46          47.43         -18.92          5.727          20.23          66.56          89.33          128.4          83.69
    0.6803              -57.36          36.17          35.64          47.35         -18.89          5.727           21.1          65.87          87.04          128.0          84.22
    0.6977              -57.34          35.93          35.86          47.25         -18.85          5.727          22.18          65.02          84.22          127.6          84.88
    0.7152              -57.31          35.63          36.13          47.13          -18.8          5.727          23.51          63.97          80.69          127.0          85.71
    0.7326              -57.27          35.26          36.47          46.97         -18.74          5.727           25.2          62.64          76.25          126.2          86.75
    0.7501              -57.23          34.77           36.9          46.77         -18.67          5.727          27.34          60.94          70.61          125.3          88.07
    0.7675              -57.17          34.16          37.46          46.52         -18.57          5.727          30.09          58.78          63.39          124.0          89.76
     0.785               -57.1          33.37          38.17          46.19         -18.45          5.727          33.61           56.0          54.12          122.5          91.92
    0.8024              -57.01          32.36          39.09          45.77         -18.29          5.727          38.11          52.44          42.28          120.5          94.69
    0.8198               -56.9          31.09          40.23          45.25         -18.08          5.727          43.76          47.98          27.39          117.9          98.18
    0.8373              -56.76          29.55          41.63          44.61         -17.84          5.727          50.65          42.54          9.249          114.9          102.4
    0.8547               -56.6          27.75          43.25          43.87         -17.56          5.727          58.64          36.23         -11.78          111.3          107.3
    0.8722              -56.42          25.81           45.0          43.07         -17.25          5.727          67.29           29.4         -34.55          107.5          112.7
    0.8896              -56.25          23.87          46.76          42.26         -16.94          5.727          75.94          22.57         -57.32          103.6          118.0
    0.9071              -56.09          22.08          48.38          41.52         -16.66          5.727          83.93          16.26         -78.35          100.1          122.9
    0.9245              -55.95          20.54          49.78          40.88         -16.41          5.727          90.82          10.82         -96.49          96.99          127.2
     0.942              -55.83          19.27          50.92          40.36         -16.21          5.727          96.48          6.352         -111.4          94.48          130.6
    0.9594              -55.74          18.26          51.83          39.94         -16.05          5.727          101.0            2.8         -123.2          92.47          133.4
    0.9768              -55.67          17.47          52.55          39.62         -15.93          5.727          104.5        0.01968         -132.5           90.9          135.6
    0.9943              -55.61          16.85           53.1          39.36         -15.83          5.727          107.2         -2.147         -139.7          89.68          137.3
     1.012              -55.57          16.37          53.54          39.16         -15.75          5.727          109.4          -3.84         -145.4          88.73          138.6
     1.029              -55.54           16.0          53.88          39.01         -15.69          5.727          111.1         -5.171         -149.8          87.98          139.6
     1.047              -55.51           15.7          54.15          38.88         -15.64          5.727          112.4         -6.228         -153.3          87.38          140.5
     1.064              -55.49          15.45          54.37          38.78         -15.61          5.727          113.5         -7.076         -156.1           86.9          141.1
     1.082              -55.47          15.26          54.55           38.7         -15.57          5.727          114.3         -7.763         -158.4          86.52          141.6
     1.099              -55.45           15.1          54.69          38.64         -15.55          5.727          115.1         -8.325         -160.3           86.2          142.1
     1.116              -55.44          14.97          54.81          38.58         -15.53          5.727          115.7          -8.79         -161.9          85.94          142.4
